<svg width="20" height="18" viewBox="0 0 20 18" fill="none" xmlns="http://www.w3.org/2000/svg">
<path d="M17.7781 11.25C17.7781 11.25 15.5559 14.5072 15.5559 15.75C15.5559 16.9928 16.5511 18 17.7781 18C19.0052 18 20.0004 16.9928 20.0004 15.75C20.0004 14.5072 17.7781 11.25 17.7781 11.25ZM17.4528 7.63102L10.2413 0.329414C10.0243 0.109687 9.73995 0 9.45558 0C9.1712 0 8.88683 0.109687 8.67016 0.329414L5.83752 3.19746L2.84516 0.167344C2.62815 -0.0523828 2.27641 -0.0523828 2.05975 0.167344L1.27433 0.962578C1.05766 1.1823 1.05766 1.53844 1.27433 1.75781L4.26704 4.78758L0.97676 8.11898C-0.324976 9.43664 -0.324976 11.5734 0.97676 12.8914L5.04586 17.0114C5.69655 17.6702 6.54968 18 7.40245 18C8.25558 18 9.10836 17.6706 9.75905 17.0114L17.4525 9.22184C17.8865 8.78238 17.8865 8.07047 17.4528 7.63102ZM13.4174 10.1261H2.28961C2.33683 9.99105 2.41357 9.84551 2.54759 9.71016L3.00419 9.24785L5.83787 6.37875L7.87259 8.43891C8.30627 8.87801 9.00975 8.87801 9.44343 8.43891C9.87711 7.9998 9.87711 7.28754 9.44343 6.84844L7.4087 4.78828L9.45558 2.71582L15.0959 8.4266L13.4174 10.1261Z" fill="black" fill-opacity="0.5413"/>
</svg>
